<?xml version="1.0" encoding="utf-8"?>
<!-- Svg Vector Icons : http://www.onlinewebfonts.com/icon -->
<!DOCTYPE svg PUBLIC "-//W3C//DTD SVG 1.1//EN" "http://www.w3.org/Graphics/SVG/1.1/DTD/svg11.dtd">
<svg version="1.1" xmlns="http://www.w3.org/2000/svg" xmlns:xlink="http://www.w3.org/1999/xlink" x="0px" y="0px" viewBox="0 0 1000 1000" enable-background="new 0 0 1000 1000" xml:space="preserve">
<g><g><g id="_x31__13_"><g><path d="M957.6,615.5l-75.9-44.2c4.2-23.2,7.1-46.9,7.1-71.3c0-24.4-2.8-48.2-7.1-71.3l75.9-44.2c31-18,41.6-58,23.7-89.2l-64.8-113.2c-17.9-31.3-57.5-41.9-88.5-23.9l-76.6,44.6c-35.8-30.7-76.5-55.9-121.8-72V75.3c0-36.1-29-65.3-64.8-65.3H435.2c-35.8,0-64.8,29.3-64.8,65.3v55.4c-45.3,16.2-86,41.3-121.8,72L172,158.2c-31-18-70.6-7.3-88.5,23.9L18.7,295.2c-17.9,31.2-7.3,71.2,23.7,89.2l75.9,44.2c-4.2,23.2-7.1,46.9-7.1,71.3c0,24.4,2.8,48.2,7.1,71.3l-75.9,44.2c-31,18-41.6,58-23.7,89.2l64.8,113.2c17.9,31.2,57.5,41.9,88.5,23.9l76.6-44.6c35.8,30.7,76.5,55.9,121.8,72v55.5c0,36.1,29,65.3,64.8,65.3h129.6c35.8,0,64.8-29.3,64.8-65.3v-55.4c45.2-16.1,85.9-41.3,121.8-72l76.6,44.6c31,18,70.6,7.3,88.5-23.9l64.8-113.2C999.2,673.5,988.6,633.5,957.6,615.5z M909,700.4L876.6,757c-9,15.6-28.7,21-44.3,12l-90-52.4c-45.7,52-107.4,89.2-177.5,103.6V892c0,18-14.5,32.7-32.4,32.7h-64.8c-17.9,0-32.4-14.6-32.4-32.7v-71.9c-70.1-14.3-131.8-51.6-177.5-103.6l-90,52.4c-15.5,9-35.3,3.7-44.3-12L91,700.4c-9-15.6-3.6-35.6,11.9-44.6l90.4-52.6c-10.7-32.5-17.2-67-17.2-103.1c0-36.2,6.4-70.7,17.2-103.2l-90.4-52.6c-15.5-9-20.8-29-11.8-44.6l32.4-56.6c9-15.6,28.7-21,44.3-12l90,52.4c45.7-52,107.4-89.2,177.5-103.6V108c0-18,14.5-32.7,32.4-32.7h64.8c17.9,0,32.4,14.6,32.4,32.7v71.9c70.1,14.3,131.8,51.6,177.5,103.6l90-52.4c15.5-9,35.3-3.7,44.3,12l32.4,56.6c9,15.6,3.6,35.6-11.9,44.6l-90.4,52.6c10.8,32.5,17.2,67,17.2,103.1c0,36.2-6.4,70.6-17.2,103.1l90.4,52.6C912.6,664.8,918,684.8,909,700.4z M500,336.7c-89.5,0-162,73.1-162,163.3c0,90.2,72.5,163.3,162,163.3c89.5,0,162-73.1,162-163.3C662,409.8,589.5,336.7,500,336.7z M500,598c-53.7,0-97.2-43.9-97.2-98c0-54.1,43.5-98,97.2-98c53.7,0,97.2,43.9,97.2,98C597.2,554.1,553.7,598,500,598z"/></g></g></g><g></g><g></g><g></g><g></g><g></g><g></g><g></g><g></g><g></g><g></g><g></g><g></g><g></g><g></g><g></g></g>
</svg>